<svg xmlns="http://www.w3.org/2000/svg" width="532" height="469" viewBox="0 0 532 469">
<g>
<path d="M 279.00 410.96 C244.70,414.04 212.03,407.75 180.50,392.00 C161.95,382.74 150.22,374.21 134.45,358.50 C114.24,338.38 100.44,315.72 91.51,288.00 C85.78,270.21 83.99,259.71 83.33,240.00 C82.45,213.67 85.02,195.95 93.01,173.30 C108.42,129.64 140.30,93.82 182.50,72.75 C206.44,60.80 229.88,55.15 259.00,54.32 C274.08,53.89 276.97,54.10 292.68,56.84 C302.78,58.61 314.31,61.36 320.68,63.53 C332.71,67.64 348.08,74.29 352.15,77.14 C353.61,78.16 355.10,79.00 355.45,79.00 C356.67,79.00 371.52,89.36 378.88,95.34 C393.19,106.97 401.91,116.67 413.18,133.52 C433.40,163.73 443.03,196.02 442.98,233.47 C442.91,288.72 417.65,340.76 375.05,373.41 C346.14,395.57 315.02,407.74 279.00,410.96 ZM 219.65 334.24 C219.91,334.66 234.04,335.00 251.06,335.00 C277.33,335.00 282.00,334.78 282.00,333.56 C282.00,332.77 280.91,329.05 279.57,325.31 C275.00,312.51 257.78,263.50 256.98,261.00 C256.54,259.62 253.85,251.98 251.01,244.00 C248.17,236.02 239.09,209.93 230.83,186.00 C222.57,162.07 214.17,137.77 212.16,132.00 L 208.50 121.50 L 177.25 121.24 C151.08,121.01 146.00,121.20 146.00,122.36 C146.00,123.70 156.67,155.03 168.34,188.00 C171.36,196.52 174.30,204.85 174.88,206.50 C182.94,229.65 192.39,256.97 197.19,271.00 C200.48,280.62 205.66,295.48 208.70,304.00 C211.75,312.52 215.35,322.65 216.71,326.49 C218.07,330.34 219.39,333.83 219.65,334.24 ZM 268.00 254.62 C268.00,255.76 273.29,256.00 298.94,256.00 C319.32,256.00 330.10,255.64 330.53,254.96 C331.93,252.69 377.00,123.55 377.00,121.80 C377.00,121.36 363.07,121.00 346.04,121.00 C315.95,121.00 315.04,121.06 313.98,123.03 C313.39,124.14 309.82,133.93 306.05,144.78 C289.06,193.70 274.87,234.30 271.58,243.37 C269.61,248.80 268.00,253.86 268.00,254.62 Z" fill="rgb(60,134,152)"/>
<path d="M 0.00 234.50 L 0.00 0.00 L 266.00 0.00 L 532.00 0.00 L 532.00 234.50 L 532.00 469.00 L 266.00 469.00 L 0.00 469.00 L 0.00 234.50 ZM 279.00 410.96 C315.02,407.74 346.14,395.57 375.05,373.41 C417.65,340.76 442.91,288.72 442.98,233.47 C443.03,196.02 433.40,163.73 413.18,133.52 C401.91,116.67 393.19,106.97 378.88,95.34 C371.52,89.36 356.67,79.00 355.45,79.00 C355.10,79.00 353.61,78.16 352.15,77.14 C348.08,74.29 332.71,67.64 320.68,63.53 C314.31,61.36 302.78,58.61 292.68,56.84 C276.97,54.10 274.08,53.89 259.00,54.32 C229.88,55.15 206.44,60.80 182.50,72.75 C140.30,93.82 108.42,129.64 93.01,173.30 C85.02,195.95 82.45,213.67 83.33,240.00 C83.99,259.71 85.78,270.21 91.51,288.00 C100.44,315.72 114.24,338.38 134.45,358.50 C150.22,374.21 161.95,382.74 180.50,392.00 C212.03,407.75 244.70,414.04 279.00,410.96 ZM 219.65 334.24 C219.39,333.83 218.07,330.34 216.71,326.49 C215.35,322.65 211.75,312.52 208.70,304.00 C205.66,295.48 200.48,280.62 197.19,271.00 C192.39,256.97 182.94,229.65 174.88,206.50 C174.30,204.85 171.36,196.52 168.34,188.00 C156.67,155.03 146.00,123.70 146.00,122.36 C146.00,121.20 151.08,121.01 177.25,121.24 L 208.50 121.50 L 212.16 132.00 C214.17,137.77 222.57,162.07 230.83,186.00 C239.09,209.93 248.17,236.02 251.01,244.00 C253.85,251.98 256.54,259.62 256.98,261.00 C257.78,263.50 275.00,312.51 279.57,325.31 C280.91,329.05 282.00,332.77 282.00,333.56 C282.00,334.78 277.33,335.00 251.06,335.00 C234.04,335.00 219.91,334.66 219.65,334.24 ZM 268.00 254.62 C268.00,253.86 269.61,248.80 271.58,243.37 C274.87,234.30 289.06,193.70 306.05,144.78 C309.82,133.93 313.39,124.14 313.98,123.03 C315.04,121.06 315.95,121.00 346.04,121.00 C363.07,121.00 377.00,121.36 377.00,121.80 C377.00,123.55 331.93,252.69 330.53,254.96 C330.10,255.64 319.32,256.00 298.94,256.00 C273.29,256.00 268.00,255.76 268.00,254.62 Z" fill="rgb(254,254,254)"/>
</g>
</svg>